<svg width="12" height="12" viewBox="0 0 12 12" fill="none" xmlns="http://www.w3.org/2000/svg">
<path d="M8.55557 3.33147C8.39112 3.44135 8.19778 3.5 8 3.5C7.73478 3.5 7.48043 3.39464 7.29289 3.20711C7.10535 3.01957 7 2.76522 7 2.5C7 2.30222 7.05865 2.10888 7.16853 1.94443C7.27841 1.77998 7.43459 1.65181 7.61731 1.57612C7.80004 1.50043 8.00111 1.48063 8.19509 1.51922C8.38907 1.5578 8.56725 1.65304 8.7071 1.79289C8.84696 1.93275 8.9422 2.11093 8.98078 2.30491C9.01937 2.49889 8.99956 2.69996 8.92388 2.88268C8.84819 3.06541 8.72002 3.22159 8.55557 3.33147Z" fill="white"/>
<path d="M5.58663 9.8075C5.88733 9.67111 6.14959 9.46241 6.35 9.2C6.42956 9.09391 6.54801 9.02378 6.67929 9.00503C6.81056 8.98627 6.94391 9.02044 7.05 9.1C7.15608 9.17957 7.22622 9.29801 7.24497 9.42929C7.26372 9.56056 7.22956 9.69391 7.15 9.8C6.87056 10.1726 6.5082 10.475 6.09164 10.6833C5.67507 10.8916 5.21573 11 4.75 11C3.95435 11.0444 3.17364 10.771 2.57962 10.2398C1.9856 9.70856 1.62692 8.96315 1.5825 8.1675C1.53807 7.37185 1.81154 6.59114 2.34274 5.99712C2.87393 5.4031 3.61935 5.04442 4.415 5C4.5476 4.98541 4.68058 5.0241 4.78466 5.10756C4.88874 5.19101 4.95541 5.31239 4.97 5.445C4.98458 5.57761 4.94589 5.71058 4.86244 5.81466C4.77899 5.91875 4.6576 5.98541 4.525 6C4.19711 6.03889 3.88396 6.15834 3.61347 6.34771C3.34299 6.53708 3.1236 6.79047 2.97489 7.08526C2.82617 7.38005 2.75275 7.70708 2.76118 8.03716C2.76961 8.36723 2.85963 8.69008 3.02321 8.9769C3.18678 9.26371 3.41882 9.50557 3.69862 9.68088C3.97842 9.85619 4.29726 9.95951 4.62671 9.9816C4.95615 10.0037 5.28594 9.94388 5.58663 9.8075Z" fill="white"/>
</svg>
